<?xml version="1.0" encoding="UTF-8"?>
<svg id="Calque_2" xmlns="http://www.w3.org/2000/svg" viewBox="0 0 510.29 449.24">
  <defs>
    <style>
      .cls-1 {
        fill: #f4f3ee;
      }
    </style>
  </defs>
  <g id="Calque_1-2" data-name="Calque_1">
    <path class="cls-1" d="M0,11.13C3.99,2.48,10.84-.13,20.12,0c27.11.4,54.22.13,81.33.15,11.16,0,16.1,3.88,18.56,14.69,3.39,14.88,6.69,29.79,10.14,45.19,2.18,0,4.3,0,6.43,0,118.76,0,237.52.02,356.28-.05,7,0,13.46,1.42,16.12,8.29,1.54,3.98,1.7,9.24.54,13.39-10.76,38.71-21.93,77.31-32.98,115.94-8.4,29.37-16.79,58.75-25.22,88.11-2.97,10.34-7.64,13.85-18.33,13.85-88.49,0-176.98.03-265.47-.04-7.03,0-12.84,1.81-16.17,8.46-4.69,9.37,1.47,20.32,11.99,21.41,1.98.2,3.99.11,5.98.11,87.99,0,175.98.03,263.97-.04,7.04,0,12.84,1.84,16.18,8.46,4.9,9.75-1.84,20.99-13,21.43-7.63.3-15.29.06-22.78.06,5.37,2.3,11.21,3.95,16.04,7.13,4.89,3.22,9.58,7.4,12.9,12.18,3.42,4.91,5.99,10.86,7.23,16.71,1.21,5.69,1.05,11.97.14,17.77-3.24,20.51-23.7,36.73-44.65,36.02-23.45-.8-41.46-17.63-43.73-41.65-1.73-18.37,8.81-41.23,38.15-47.94h-198.9c29.57,6.55,40.61,30.44,38.16,49.49-3.02,23.47-21.86,40.32-44.63,40.13-23.33-.2-42-17.35-44.36-41.52-1.92-19.74,10.33-42.08,37.47-48.97-9.73,0-19.53.79-29.16-.17-18.48-1.83-34.19-16.95-37.6-34.92-3.7-19.5,4.97-38.7,21.68-48.04,1.3-.73,2.62-1.42,4.36-2.37-17.99-80.96-35.99-161.95-54.03-243.16h-46.71c-8.65,0-17.32-.4-25.94.11-9.3.55-16.14-2.44-20.13-11.09v-7.98ZM136.81,90.19c13.33,59.98,26.6,119.68,39.84,179.25h248.25c17.07-59.74,34.11-119.37,51.22-179.25H136.81ZM209.55,404.77c.23-8.12-6.39-15.11-14.52-15.34-8.12-.23-15.11,6.39-15.34,14.52-.23,8.12,6.39,15.11,14.52,15.34,8.12.23,15.11-6.39,15.34-14.52ZM421.14,404.24c-.07-8.15-6.92-14.88-15.06-14.81-8.14.07-14.88,6.92-14.81,15.06.07,8.14,6.92,14.88,15.06,14.81,8.14-.07,14.88-6.92,14.81-15.06Z"/>
  </g>
</svg>