<?xml version="1.0" encoding="UTF-8"?>
<svg id="Calque_2" xmlns="http://www.w3.org/2000/svg" viewBox="0 0 215.02 384">
  <g id="Calque_1-2" data-name="Calque_1">
    <g>
      <path d="M27.39,384c-2.22-.73-4.5-1.32-6.65-2.22-11.95-4.97-18.87-13.87-20.45-26.79-.27-2.22-.29-4.49-.29-6.73C0,244.09,0,139.91,0,35.73,0,16.44,8.37,5.45,26.82.45c.22-.06.38-.3.57-.45,53.4,0,106.8,0,160.2,0,.43.21.84.52,1.29.63,15.51,3.66,24.93,14.73,25.99,30.61.08,1.24.1,2.5.1,3.74,0,104.67-.02,209.35.04,314.02,0,14.1-5.36,24.95-18.05,31.57-2.92,1.53-6.24,2.3-9.37,3.42H27.39ZM11.98,191.99c0,52.62-.02,105.23.01,157.85,0,13.9,8.32,22.16,22.14,22.16,48.9.01,97.8,0,146.7-.01,1.86,0,3.76-.02,5.58-.38,10.64-2.11,16.59-10.2,16.59-22.5,0-104.73,0-209.46,0-314.2,0-1.62-.05-3.25-.24-4.86-1.17-10.26-9.35-17.98-19.66-17.99-50.4-.09-100.79-.06-151.19-.02-5.92,0-10.86,2.46-14.83,6.86-4.1,4.56-5.13,10.06-5.12,15.99.04,52.37.02,104.73.03,157.1Z"/>
      <path d="M107.12,354.78c-11.22,0-22.44.01-33.66,0-4.76,0-7.4-2.16-7.41-5.96,0-3.77,2.68-6.02,7.4-6.02,22.69-.02,45.38-.02,68.07,0,4.72,0,7.41,2.25,7.41,6.02,0,3.79-2.64,5.96-7.4,5.96-11.47.02-22.94,0-34.41,0Z"/>
      <path d="M115.2,42.76c-2.62,0-5.24.1-7.86-.03-3.58-.18-5.9-2.62-5.88-5.96.02-3.19,2.2-5.77,5.57-5.9,5.61-.21,11.23-.2,16.84-.02,3.47.11,5.89,2.95,5.76,6.16-.13,3.23-2.61,5.6-6.19,5.73-2.74.1-5.49.02-8.23.02Z"/>
      <path d="M97.68,36.81c-.01,3.39-2.86,6.04-6.37,5.95-3.34-.09-5.96-2.72-5.96-5.98,0-3.38,2.9-6.1,6.36-5.98,3.29.11,5.98,2.82,5.97,6.01Z"/>
    </g>
  </g>
</svg>