<?xml version="1.0" standalone="no"?>
<!DOCTYPE svg PUBLIC "-//W3C//DTD SVG 20010904//EN"
 "http://www.w3.org/TR/2001/REC-SVG-20010904/DTD/svg10.dtd">
<svg version="1.0" xmlns="http://www.w3.org/2000/svg"
 width="300.000000pt" height="300.000000pt" viewBox="0 0 300.000000 300.000000"
 preserveAspectRatio="xMidYMid meet">
<metadata>
Created by potrace 1.14, written by Peter Selinger 2001-2017
</metadata>
<g transform="translate(0.000000,300.000000) scale(0.100000,-0.100000)"
fill="#000000" stroke="none">
<path d="M0 1500 l0 -1500 1500 0 1500 0 0 1500 0 1500 -1500 0 -1500 0 0
-1500z m2087 424 c83 -53 59 -190 -43 -250 -37 -22 -61 -27 -143 -31 -95 -6
-99 -5 -111 17 -6 12 -13 57 -13 100 -2 74 0 80 28 110 39 41 58 51 125 67 62
14 124 9 157 -13z m-1539 -9 c37 -31 48 -81 28 -127 -8 -18 -38 -55 -67 -83
-88 -83 -109 -164 -59 -228 11 -14 55 -40 97 -57 135 -56 194 -109 209 -188 5
-24 -1 -46 -20 -86 -44 -90 -127 -115 -259 -81 -116 30 -215 116 -270 234 -27
56 -32 80 -35 161 -5 111 13 194 61 284 38 72 108 151 156 176 53 28 122 26
159 -5z m697 6 c69 -31 80 -52 80 -145 1 -98 21 -147 78 -185 21 -14 59 -44
83 -65 25 -21 48 -36 51 -32 15 14 -24 62 -82 101 -74 51 -95 84 -95 153 0 91
60 174 136 188 98 18 169 -23 216 -123 28 -59 31 -76 35 -196 10 -278 -59
-502 -168 -547 -35 -15 -91 -6 -113 19 -15 17 -15 21 3 62 64 144 28 226 -152
348 -42 28 -89 67 -104 86 -29 37 -53 46 -53 20 0 -25 58 -80 160 -153 52 -37
105 -82 117 -101 58 -86 2 -242 -100 -280 -39 -15 -121 -14 -160 2 -54 23 -60
37 -46 105 10 48 10 69 0 104 -18 63 -73 141 -125 178 -135 98 -94 379 67 459
52 26 118 27 172 2z m1417 -10 c37 -12 81 -33 98 -48 119 -100 75 -284 -73
-300 -58 -7 -106 10 -165 56 -62 49 -80 59 -141 72 -72 15 -143 -7 -213 -67
-87 -76 -148 -91 -164 -41 -5 15 -1 24 11 32 114 67 155 125 155 219 0 28 4
57 9 65 29 45 357 53 483 12z m-1795 -7 c19 -10 42 -28 51 -41 14 -23 14 -29
-2 -71 -10 -26 -20 -87 -23 -135 -7 -105 -5 -103 -141 -123 -190 -27 -292 -15
-292 34 0 28 38 84 83 124 23 21 58 68 77 105 31 60 42 71 89 96 62 31 108 34
158 11z m1533 -254 c12 -7 28 -37 41 -83 12 -39 46 -125 77 -190 50 -110 54
-123 48 -170 -13 -118 -120 -176 -271 -148 -82 15 -97 32 -83 94 15 62 1 116
-52 206 -50 84 -57 118 -35 165 45 95 200 166 275 126z m-453 -65 c12 -8 31
-32 44 -52 12 -21 48 -69 79 -108 80 -98 110 -161 110 -229 0 -47 -4 -60 -30
-90 -102 -116 -399 -34 -403 111 0 21 7 78 16 127 9 49 17 110 17 137 0 69 13
97 52 108 50 14 91 13 115 -4z m-1048 -96 c116 -52 201 -165 201 -265 0 -44
-5 -60 -33 -96 -18 -24 -48 -51 -67 -60 -60 -30 -149 -19 -198 26 -21 19 -22
26 -16 87 11 114 -33 177 -173 248 -35 17 -63 35 -63 40 0 11 160 38 240 39
46 1 78 -4 109 -19z"/>
</g>
</svg>
